<?xml version="1.0" standalone="no"?>
<!DOCTYPE svg PUBLIC "-//W3C//DTD SVG 20010904//EN"
 "http://www.w3.org/TR/2001/REC-SVG-20010904/DTD/svg10.dtd">
<svg version="1.0" xmlns="http://www.w3.org/2000/svg"
 width="315.000000pt" height="325.000000pt" viewBox="0 0 315.000000 325.000000"
 preserveAspectRatio="xMidYMid meet">
<metadata>
Created by potrace 1.16, written by Peter Selinger 2001-2019
</metadata>
<g transform="translate(0.000000,325.000000) scale(0.100000,-0.100000)"
fill="#000000" stroke="none">
<path d="M1473 3164 c-40 -19 -117 -47 -170 -62 -89 -24 -114 -27 -263 -27
-186 0 -255 15 -380 81 l-65 35 -120 -124 c-66 -68 -182 -189 -258 -269 l-138
-146 74 -74 c121 -121 177 -259 177 -439 0 -148 -32 -258 -134 -464 -91 -184
-97 -198 -123 -295 -27 -102 -25 -338 5 -450 58 -219 189 -373 403 -474 82
-39 157 -59 392 -106 314 -62 516 -129 608 -202 l49 -39 57 40 c109 79 290
130 606 171 347 45 517 108 669 248 82 76 132 155 168 267 87 274 47 568 -111
811 -119 182 -171 330 -171 489 -1 159 41 262 155 382 28 30 74 71 102 91 27
19 52 37 54 39 3 2 -47 56 -110 121 -63 64 -183 188 -267 274 l-152 158 -62
-34 c-227 -124 -542 -122 -843 5 -38 16 -72 29 -75 28 -3 0 -38 -16 -77 -35z
m194 -62 c166 -60 254 -76 408 -76 160 0 258 20 381 78 l72 34 231 -241 231
-242 -28 -19 c-15 -10 -59 -51 -97 -91 -65 -67 -100 -122 -139 -218 l-16 -39
-570 8 -570 7 -2 -34 -1 -34 -4 33 -4 32 -598 0 -599 0 -17 52 c-9 29 -27 73
-40 98 -28 56 -109 165 -137 184 -11 8 -19 19 -17 24 4 9 439 472 444 472 1 0
36 -16 78 -35 142 -66 315 -93 470 -74 151 18 416 108 418 142 0 7 4 3 9 -9 6
-15 34 -30 97 -52z m913 -890 l115 -3 1 -87 c2 -156 53 -301 171 -490 115
-181 157 -322 157 -517 0 -92 -5 -140 -22 -203 -38 -143 -73 -206 -160 -291
-132 -130 -310 -207 -549 -236 -374 -45 -625 -111 -729 -190 l-32 -24 -18 20
c-31 34 -171 96 -302 133 -110 32 -243 61 -502 111 -308 60 -520 245 -586 515
-28 113 -26 327 4 439 22 82 36 113 140 316 72 143 103 253 109 398 l6 118
1041 -3 c572 -1 1093 -4 1156 -6z"/>
<path d="M1232 2039 l3 -143 55 3 c108 6 154 49 153 143 -1 86 -47 127 -148
136 l-66 5 3 -144z m136 54 c48 -52 12 -143 -58 -143 l-30 0 0 83 c0 46 3 87
6 90 13 12 59 -5 82 -30z"/>
<path d="M1521 2151 c-70 -65 -20 -181 77 -181 49 0 102 54 102 105 0 29 -8
45 -34 71 -46 46 -99 47 -145 5z"/>
<path d="M1730 2155 c0 -21 5 -25 30 -25 l30 0 0 -120 c0 -119 0 -120 23 -116
21 3 22 7 25 119 l3 117 29 0 c25 0 30 4 30 25 0 25 -1 25 -85 25 -84 0 -85 0
-85 -25z"/>
<path d="M1383 1853 c-95 -33 -188 -151 -200 -254 l-6 -49 82 0 c78 0 81 1 81
24 0 28 35 82 72 109 15 11 48 22 75 24 96 8 178 -74 170 -170 -5 -59 -21 -76
-145 -165 -117 -82 -180 -152 -236 -262 -56 -108 -85 -203 -94 -312 -7 -80 -6
-87 11 -92 10 -2 121 -5 245 -5 125 -1 260 -4 300 -7 l72 -7 0 86 0 85 -227 1
c-125 1 -229 3 -230 5 -5 5 29 110 47 146 45 88 109 157 226 240 80 57 125 96
144 127 107 168 27 403 -160 474 -61 23 -166 24 -227 2z"/>
<path d="M2260 1860 c-117 -25 -203 -143 -247 -345 -12 -50 -16 -125 -16 -265
0 -167 3 -206 21 -272 40 -149 97 -239 176 -281 33 -18 58 -22 131 -22 80 0
95 3 136 27 60 36 94 76 136 163 55 116 67 192 67 420 0 174 -3 210 -22 279
-57 208 -133 290 -279 301 -32 2 -78 0 -103 -5z m141 -176 c67 -34 109 -193
109 -410 0 -274 -68 -444 -178 -444 -79 0 -126 56 -159 187 -24 96 -24 390 0
486 22 89 61 163 95 181 36 20 95 20 133 0z"/>
<path d="M772 1848 c-5 -7 -109 -175 -231 -372 l-222 -359 3 -56 3 -56 190 -6
c105 -4 207 -7 228 -8 l37 -1 0 -135 0 -135 43 0 c23 0 59 -3 80 -6 l37 -7 0
142 0 143 32 -4 32 -3 1 75 0 75 -32 3 -33 3 0 360 0 359 -79 0 c-51 0 -82 -4
-89 -12z m8 -493 l0 -205 -130 0 c-71 0 -130 2 -130 5 0 4 98 163 227 368 13
20 25 37 28 37 3 0 5 -92 5 -205z"/>
</g>
</svg>
